<?xml version="1.0" encoding="utf-8"?>
<!-- Generator: Adobe Illustrator 17.0.0, SVG Export Plug-In . SVG Version: 6.00 Build 0)  -->
<!DOCTYPE svg PUBLIC "-//W3C//DTD SVG 1.1//EN" "http://www.w3.org/Graphics/SVG/1.1/DTD/svg11.dtd">
<svg version="1.1"
	 id="svg2" inkscape:output_extension="org.inkscape.output.svg.inkscape" sodipodi:docname="Ryan_Taylor_Green_Tick_ok.svg" inkscape:version="0.46dev+devel" sodipodi:version="0.32" xmlns:dc="http://purl.org/dc/elements/1.1/" xmlns:cc="http://creativecommons.org/ns#" xmlns:rdf="http://www.w3.org/1999/02/22-rdf-syntax-ns#" xmlns:svg="http://www.w3.org/2000/svg" xmlns:sodipodi="http://sodipodi.sourceforge.net/DTD/sodipodi-0.dtd" xmlns:inkscape="http://www.inkscape.org/namespaces/inkscape"
	 xmlns="http://www.w3.org/2000/svg" xmlns:xlink="http://www.w3.org/1999/xlink" x="0px" y="0px" width="174px" height="200px"
	 viewBox="1.834 722.313 174 200" enable-background="new 1.834 722.313 174 200" xml:space="preserve">
<sodipodi:namedview  inkscape:window-x="66" inkscape:window-width="640" inkscape:window-height="643" inkscape:pageopacity="0.0" inkscape:pageshadow="2" inkscape:current-layer="svg2" inkscape:window-y="87" inkscape:cy="526.18109" inkscape:cx="372.04724" inkscape:zoom="0.41050506" showgrid="false" pagecolor="#ffffff" bordercolor="#666666" guidetolerance="10.0" objecttolerance="10.0" gridtolerance="10.0" borderopacity="1.0" id="base">
	</sodipodi:namedview>
<g id="layer1" transform="translate(-100.70612,-203.06678)">
	<path id="path3161_1_" opacity="0.8599" fill="#44AA00" enable-background="new    " d="M179.907,1039.053
		c18.042-27.712,35.945-55.558,50.455-85.313c1.347-3.145,2.694-6.291,4.041-9.436l41.882-18.923
		c-2.014,3.491-4.027,6.981-6.041,10.472c-17.007,28.748-34.801,57.024-51.47,85.971c-9.242,16.713-18.301,33.533-26.581,50.748
		c-2.914,5.74-6.079,11.322-9.169,16.963c-8.039,18.591-41.732,49.904-52.898,28.816c-3.162-9.452-6.358-18.917-10.643-27.935
		c-4.35-9.557-8.964-18.989-13.405-28.504c-1.478-3.167-2.516-6.458-3.537-9.796l48.695-25.833c0.004,3.329,0.854,6.563,1.562,9.79
		c2.409,10.296,6.104,20.193,10.059,29.977"/>
</g>
</svg>
